<svg width="1600" height="183" viewBox="0 0 1600 183" fill="none" xmlns="http://www.w3.org/2000/svg">
<path d="M105.398 0.84375H106.398V-0.15625H105.398V0.84375ZM105.398 27.5449V28.5449H106.398V27.5449H105.398ZM23.4492 27.5449V26.5449H22.4492V27.5449H23.4492ZM23.4492 180V181H24.4492V180H23.4492ZM-10.2656 180H-11.2656V181H-10.2656V180ZM-10.2656 0.84375V-0.15625H-11.2656V0.84375H-10.2656ZM12.498 67.9043V66.9043H11.498V67.9043H12.498ZM91.6172 74.918L91.191 75.8226L91.1972 75.8255L91.6172 74.918ZM114.381 94.2363L113.536 94.7716L113.54 94.7775L114.381 94.2363ZM117.826 146.285L116.911 145.882L116.907 145.891L117.826 146.285ZM104.783 164.25L105.44 165.004L105.446 164.999L104.783 164.25ZM83.8652 175.939L84.1786 176.889L84.1871 176.886L83.8652 175.939ZM-10.2656 180H-11.2656V181H-10.2656V180ZM-10.2656 0.84375V-0.15625H-11.2656V0.84375H-10.2656ZM23.6953 0.84375H24.6953V-0.15625H23.6953V0.84375ZM23.6953 153.422H22.6953V154.422H23.6953V153.422ZM12.498 94.4824H11.498V95.4824H12.498V94.4824ZM104.398 0.84375V27.5449H106.398V0.84375H104.398ZM105.398 26.5449H23.4492V28.5449H105.398V26.5449ZM22.4492 27.5449V180H24.4492V27.5449H22.4492ZM23.4492 179H-10.2656V181H23.4492V179ZM-9.26562 180V0.84375H-11.2656V180H-9.26562ZM-10.2656 1.84375H105.398V-0.15625H-10.2656V1.84375ZM12.498 68.9043H55.9336V66.9043H12.498V68.9043ZM55.9336 68.9043C69.6872 68.9043 81.4289 71.2239 91.191 75.8226L92.0433 74.0133C81.954 69.2605 69.9066 66.9043 55.9336 66.9043V68.9043ZM91.1972 75.8255C100.969 80.3481 108.401 86.667 113.536 94.7716L115.226 93.7011C109.861 85.2353 102.117 78.6753 92.0372 74.0105L91.1972 75.8255ZM113.54 94.7775C118.755 102.881 121.379 112.408 121.379 123.398H123.379C123.379 112.076 120.671 102.162 115.222 93.6951L113.54 94.7775ZM121.379 123.398C121.379 131.642 119.884 139.132 116.911 145.882L118.741 146.688C121.838 139.657 123.379 131.889 123.379 123.398H121.379ZM116.907 145.891C114.013 152.643 109.755 158.511 104.12 163.501L105.446 164.999C111.296 159.817 115.733 153.709 118.745 146.679L116.907 145.891ZM104.126 163.496C98.4947 168.404 91.6401 172.24 83.5433 174.993L84.1871 176.886C92.4966 174.061 99.5873 170.104 105.44 165.004L104.126 163.496ZM83.5519 174.99C75.4682 177.657 66.2663 179 55.9336 179V181C66.4368 181 75.856 179.636 84.1786 176.889L83.5519 174.99ZM55.9336 179H-10.2656V181H55.9336V179ZM-9.26562 180V0.84375H-11.2656V180H-9.26562ZM-10.2656 1.84375H23.6953V-0.15625H-10.2656V1.84375ZM22.6953 0.84375V153.422H24.6953V0.84375H22.6953ZM23.6953 154.422H55.9336V152.422H23.6953V154.422ZM55.9336 154.422C63.437 154.422 69.734 153.005 74.7669 150.105L73.7683 148.372C69.1215 151.05 63.1958 152.422 55.9336 152.422V154.422ZM74.7669 150.105C79.7587 147.228 83.5098 143.401 85.9837 138.624L84.2077 137.704C81.9238 142.114 78.4561 145.67 73.7683 148.372L74.7669 150.105ZM85.9837 138.624C88.4397 133.881 89.6641 128.719 89.6641 123.152H87.6641C87.6641 128.414 86.5096 133.259 84.2077 137.704L85.9837 138.624ZM89.6641 123.152C89.6641 117.666 88.4385 112.659 85.973 108.153L84.2184 109.113C86.5108 113.302 87.6641 117.975 87.6641 123.152H89.6641ZM85.973 108.153C83.4899 103.615 79.7281 100.036 74.7327 97.4116L73.8025 99.1821C78.4867 101.643 81.9437 104.956 84.2184 109.113L85.973 108.153ZM74.7327 97.4116C69.7081 94.7716 63.4242 93.4824 55.9336 93.4824V95.4824C63.2086 95.4824 69.1474 96.7363 73.8025 99.1821L74.7327 97.4116ZM55.9336 93.4824H12.498V95.4824H55.9336V93.4824ZM13.498 94.4824V67.9043H11.498V94.4824H13.498ZM222.396 116.385L223.325 116.755L223.329 116.746L222.396 116.385ZM267.185 0.84375V-0.15625H266.501L266.253 0.482311L267.185 0.84375ZM303.976 0.84375L304.897 1.23438L305.487 -0.15625H303.976V0.84375ZM242.207 146.408L243.123 146.81L243.127 146.799L242.207 146.408ZM225.719 171.633L226.4 172.364L226.401 172.364L225.719 171.633ZM212.553 179.631L212.197 178.696L212.192 178.698L212.553 179.631ZM187.328 182.338L187.39 181.34L187.375 181.339L187.359 181.338L187.328 182.338ZM181.299 181.969H180.299V182.858L181.182 182.962L181.299 181.969ZM181.299 155.391L181.541 154.42L180.299 154.11V155.391H181.299ZM186.098 155.883L186.06 156.882L186.062 156.882L186.098 155.883ZM202.34 153.791L202.808 154.675L202.817 154.67L202.34 153.791ZM209.107 147.516L208.264 146.979L208.259 146.986L209.107 147.516ZM213.66 138.287L212.731 137.917L212.728 137.924L212.726 137.931L213.66 138.287ZM190.65 0.84375L191.56 0.427792L191.292 -0.15625H190.65V0.84375ZM233.594 94.7285L234.558 94.4624L234.536 94.3853L234.503 94.3126L233.594 94.7285ZM243.683 131.273L243.712 132.273L244.987 132.236L244.647 131.007L243.683 131.273ZM217.967 132.012L217.068 132.45L217.351 133.03L217.995 133.011L217.967 132.012ZM153.982 0.84375V-0.15625H152.382L153.083 1.28217L153.982 0.84375ZM223.329 116.746L268.118 1.20519L266.253 0.482311L221.464 116.023L223.329 116.746ZM267.185 1.84375H303.976V-0.15625H267.185V1.84375ZM303.056 0.453121L241.286 146.018L243.127 146.799L304.897 1.23438L303.056 0.453121ZM241.291 146.007C239.258 150.643 236.94 155.116 234.337 159.426L236.049 160.46C238.697 156.075 241.055 151.525 243.123 146.81L241.291 146.007ZM234.337 159.426C231.76 163.696 228.66 167.52 225.036 170.902L226.401 172.364C230.16 168.855 233.377 164.887 236.049 160.46L234.337 159.426ZM225.037 170.901C221.533 174.166 217.258 176.768 212.197 178.696L212.909 180.565C218.183 178.556 222.686 175.826 226.4 172.364L225.037 170.901ZM212.192 178.698C207.251 180.611 201.229 181.584 194.096 181.584V183.584C201.4 183.584 207.682 182.589 212.914 180.563L212.192 178.698ZM194.096 181.584C192.236 181.584 190.002 181.503 187.39 181.34L187.266 183.336C189.904 183.501 192.182 183.584 194.096 183.584V181.584ZM187.359 181.338C184.743 181.257 182.767 181.135 181.416 180.976L181.182 182.962C182.619 183.131 184.663 183.255 187.297 183.337L187.359 181.338ZM182.299 181.969V155.391H180.299V181.969H182.299ZM181.056 156.361C182.149 156.634 183.838 156.8 186.06 156.882L186.135 154.883C183.927 154.802 182.417 154.639 181.541 154.42L181.056 156.361ZM186.062 156.882C188.359 156.964 190.015 157.006 191.019 157.006V155.006C190.055 155.006 188.43 154.965 186.133 154.883L186.062 156.882ZM191.019 157.006C195.864 157.006 199.82 156.257 202.808 154.675L201.872 152.907C199.282 154.278 195.69 155.006 191.019 155.006V157.006ZM202.817 154.67C205.831 153.034 208.218 150.825 209.955 148.046L208.259 146.986C206.715 149.456 204.591 151.431 201.863 152.912L202.817 154.67ZM209.951 148.053C211.715 145.281 213.261 142.142 214.594 138.643L212.726 137.931C211.434 141.322 209.945 144.336 208.264 146.979L209.951 148.053ZM214.589 138.658L223.325 116.755L221.467 116.014L212.731 137.917L214.589 138.658ZM189.741 1.25971L232.684 95.1445L234.503 94.3126L191.56 0.427792L189.741 1.25971ZM232.63 94.9947L242.72 131.54L244.647 131.007L234.558 94.4624L232.63 94.9947ZM243.655 130.274L217.938 131.012L217.995 133.011L243.712 132.273L243.655 130.274ZM218.865 131.573L154.881 0.405327L153.083 1.28217L217.068 132.45L218.865 131.573ZM153.982 1.84375H190.65V-0.15625H153.982V1.84375ZM379.631 0.84375H380.631V-0.15625H379.631V0.84375ZM379.631 180V181H380.631V180H379.631ZM345.793 180H344.793V181H345.793V180ZM345.793 0.84375V-0.15625H344.793V0.84375H345.793ZM486.312 0.84375L487.138 1.4077L488.206 -0.15625H486.312V0.84375ZM415.56 104.449V105.449H416.088L416.386 105.013L415.56 104.449ZM371.14 104.449L370.151 104.596L370.278 105.449H371.14V104.449ZM366.711 74.6719V73.6719H365.551L365.722 74.819L366.711 74.6719ZM397.226 74.6719V75.6719H397.77L398.065 75.2159L397.226 74.6719ZM445.091 0.84375V-0.15625H444.548L444.252 0.299744L445.091 0.84375ZM451.49 180L450.658 180.555L450.955 181H451.49V180ZM397.472 99.0352L396.733 98.3616L396.206 98.9396L396.641 99.5901L397.472 99.0352ZM420.236 74.0566L421.064 73.496L420.352 72.4446L419.497 73.3831L420.236 74.0566ZM491.972 180V181H493.857L492.8 179.439L491.972 180ZM378.631 0.84375V180H380.631V0.84375H378.631ZM379.631 179H345.793V181H379.631V179ZM346.793 180V0.84375H344.793V180H346.793ZM345.793 1.84375H379.631V-0.15625H345.793V1.84375ZM485.486 0.279804L414.734 103.885L416.386 105.013L487.138 1.4077L485.486 0.279804ZM415.56 103.449H371.14V105.449H415.56V103.449ZM372.129 104.302L367.7 74.5247L365.722 74.819L370.151 104.596L372.129 104.302ZM366.711 75.6719H397.226V73.6719H366.711V75.6719ZM398.065 75.2159L445.931 1.38776L444.252 0.299744L396.387 74.1279L398.065 75.2159ZM445.091 1.84375H486.312V-0.15625H445.091V1.84375ZM452.322 179.445L398.304 98.4802L396.641 99.5901L450.658 180.555L452.322 179.445ZM398.211 99.7087L420.975 74.7302L419.497 73.3831L396.733 98.3616L398.211 99.7087ZM419.408 74.6173L491.144 180.561L492.8 179.439L421.064 73.496L419.408 74.6173ZM491.972 179H451.49V181H491.972V179ZM562.458 0.84375H563.458V-0.15625H562.458V0.84375ZM562.458 180V181H563.458V180H562.458ZM528.621 180H527.621V181H528.621V180ZM528.621 0.84375V-0.15625H527.621V0.84375H528.621ZM669.14 0.84375L669.966 1.4077L671.034 -0.15625H669.14V0.84375ZM598.388 104.449V105.449H598.916L599.214 105.013L598.388 104.449ZM553.968 104.449L552.979 104.596L553.106 105.449H553.968V104.449ZM549.539 74.6719V73.6719H548.379L548.549 74.819L549.539 74.6719ZM580.054 74.6719V75.6719H580.598L580.893 75.2159L580.054 74.6719ZM627.919 0.84375V-0.15625H627.376L627.08 0.299744L627.919 0.84375ZM634.318 180L633.486 180.555L633.783 181H634.318V180ZM580.3 99.0352L579.561 98.3616L579.034 98.9396L579.468 99.5901L580.3 99.0352ZM603.064 74.0566L603.892 73.496L603.18 72.4446L602.325 73.3831L603.064 74.0566ZM674.8 180V181H676.685L675.628 179.439L674.8 180ZM561.458 0.84375V180H563.458V0.84375H561.458ZM562.458 179H528.621V181H562.458V179ZM529.621 180V0.84375H527.621V180H529.621ZM528.621 1.84375H562.458V-0.15625H528.621V1.84375ZM668.314 0.279804L597.562 103.885L599.214 105.013L669.966 1.4077L668.314 0.279804ZM598.388 103.449H553.968V105.449H598.388V103.449ZM554.957 104.302L550.528 74.5247L548.549 74.819L552.979 104.596L554.957 104.302ZM549.539 75.6719H580.054V73.6719H549.539V75.6719ZM580.893 75.2159L628.759 1.38776L627.08 0.299744L579.215 74.1279L580.893 75.2159ZM627.919 1.84375H669.14V-0.15625H627.919V1.84375ZM635.15 179.445L581.132 98.4802L579.468 99.5901L633.486 180.555L635.15 179.445ZM581.039 99.7087L603.803 74.7302L602.325 73.3831L579.561 98.3616L581.039 99.7087ZM602.236 74.6173L673.972 180.561L675.628 179.439L603.892 73.496L602.236 74.6173ZM674.8 179H634.318V181H674.8V179ZM744.179 125.859H743.179V129.443L745.035 126.377L744.179 125.859ZM819.853 0.84375V-0.15625H819.289L818.997 0.325916L819.853 0.84375ZM853.814 0.84375H854.814V-0.15625H853.814V0.84375ZM853.814 180V181H854.814V180H853.814ZM819.853 180H818.853V181H819.853V180ZM819.853 54.9844H820.853V51.4012L818.997 54.4665L819.853 54.9844ZM744.179 180V181H744.743L745.035 180.518L744.179 180ZM710.341 180H709.341V181H710.341V180ZM710.341 0.84375V-0.15625H709.341V0.84375H710.341ZM744.179 0.84375H745.179V-0.15625H744.179V0.84375ZM745.035 126.377L820.708 1.36158L818.997 0.325916L743.324 125.342L745.035 126.377ZM819.853 1.84375H853.814V-0.15625H819.853V1.84375ZM852.814 0.84375V180H854.814V0.84375H852.814ZM853.814 179H819.853V181H853.814V179ZM820.853 180V54.9844H818.853V180H820.853ZM818.997 54.4665L743.324 179.482L745.035 180.518L820.708 55.5022L818.997 54.4665ZM744.179 179H710.341V181H744.179V179ZM711.341 180V0.84375H709.341V180H711.341ZM710.341 1.84375H744.179V-0.15625H710.341V1.84375ZM743.179 0.84375V125.859H745.179V0.84375H743.179ZM1052.27 0.84375H1053.27V-0.15625H1052.27V0.84375ZM1052.27 180V181H1053.27V180H1052.27ZM1018.43 180H1017.43V181H1018.43V180ZM1018.43 27.5449H1019.43V26.5449H1018.43V27.5449ZM942.634 27.5449V26.5449H941.634V27.5449H942.634ZM942.634 180V181H943.634V180H942.634ZM908.796 180H907.796V181H908.796V180ZM908.796 0.84375V-0.15625H907.796V0.84375H908.796ZM1051.27 0.84375V180H1053.27V0.84375H1051.27ZM1052.27 179H1018.43V181H1052.27V179ZM1019.43 180V27.5449H1017.43V180H1019.43ZM1018.43 26.5449H942.634V28.5449H1018.43V26.5449ZM941.634 27.5449V180H943.634V27.5449H941.634ZM942.634 179H908.796V181H942.634V179ZM909.796 180V0.84375H907.796V180H909.796ZM908.796 1.84375H1052.27V-0.15625H908.796V1.84375ZM1140.35 125.859H1139.35V129.443L1141.21 126.377L1140.35 125.859ZM1216.02 0.84375V-0.15625H1215.46L1215.17 0.325916L1216.02 0.84375ZM1249.99 0.84375H1250.99V-0.15625H1249.99V0.84375ZM1249.99 180V181H1250.99V180H1249.99ZM1216.02 180H1215.02V181H1216.02V180ZM1216.02 54.9844H1217.02V51.4012L1215.17 54.4665L1216.02 54.9844ZM1140.35 180V181H1140.91L1141.21 180.518L1140.35 180ZM1106.51 180H1105.51V181H1106.51V180ZM1106.51 0.84375V-0.15625H1105.51V0.84375H1106.51ZM1140.35 0.84375H1141.35V-0.15625H1140.35V0.84375ZM1141.21 126.377L1216.88 1.36158L1215.17 0.325916L1139.5 125.342L1141.21 126.377ZM1216.02 1.84375H1249.99V-0.15625H1216.02V1.84375ZM1248.99 0.84375V180H1250.99V0.84375H1248.99ZM1249.99 179H1216.02V181H1249.99V179ZM1217.02 180V54.9844H1215.02V180H1217.02ZM1215.17 54.4665L1139.5 179.482L1141.21 180.518L1216.88 55.5022L1215.17 54.4665ZM1140.35 179H1106.51V181H1140.35V179ZM1107.51 180V0.84375H1105.51V180H1107.51ZM1106.51 1.84375H1140.35V-0.15625H1106.51V1.84375ZM1139.35 0.84375V125.859H1141.35V0.84375H1139.35ZM1423.46 74.7949H1424.46V73.7949H1423.46V74.7949ZM1423.46 101.373V102.373H1424.46V101.373H1423.46ZM1329.21 101.373H1328.21V102.373H1329.21V101.373ZM1329.21 74.7949V73.7949H1328.21V74.7949H1329.21ZM1338.44 0.84375H1339.44V-0.15625H1338.44V0.84375ZM1338.44 180V181H1339.44V180H1338.44ZM1304.6 180H1303.6V181H1304.6V180ZM1304.6 0.84375V-0.15625H1303.6V0.84375H1304.6ZM1448.56 0.84375H1449.56V-0.15625H1448.56V0.84375ZM1448.56 180V181H1449.56V180H1448.56ZM1414.73 180H1413.73V181H1414.73V180ZM1414.73 0.84375V-0.15625H1413.73V0.84375H1414.73ZM1422.46 74.7949V101.373H1424.46V74.7949H1422.46ZM1423.46 100.373H1329.21V102.373H1423.46V100.373ZM1330.21 101.373V74.7949H1328.21V101.373H1330.21ZM1329.21 75.7949H1423.46V73.7949H1329.21V75.7949ZM1337.44 0.84375V180H1339.44V0.84375H1337.44ZM1338.44 179H1304.6V181H1338.44V179ZM1305.6 180V0.84375H1303.6V180H1305.6ZM1304.6 1.84375H1338.44V-0.15625H1304.6V1.84375ZM1447.56 0.84375V180H1449.56V0.84375H1447.56ZM1448.56 179H1414.73V181H1448.56V179ZM1415.73 180V0.84375H1413.73V180H1415.73ZM1414.73 1.84375H1448.56V-0.15625H1414.73V1.84375ZM1619.21 0.84375H1620.21V-0.15625H1619.21V0.84375ZM1619.21 27.5449V28.5449H1620.21V27.5449H1619.21ZM1537.26 27.5449V26.5449H1536.26V27.5449H1537.26ZM1537.26 180V181H1538.26V180H1537.26ZM1503.55 180H1502.55V181H1503.55V180ZM1503.55 0.84375V-0.15625H1502.55V0.84375H1503.55ZM1618.21 0.84375V27.5449H1620.21V0.84375H1618.21ZM1619.21 26.5449H1537.26V28.5449H1619.21V26.5449ZM1536.26 27.5449V180H1538.26V27.5449H1536.26ZM1537.26 179H1503.55V181H1537.26V179ZM1504.55 180V0.84375H1502.55V180H1504.55ZM1503.55 1.84375H1619.21V-0.15625H1503.55V1.84375Z" fill="url(#paint0_linear_58_458)"/>
<defs>
<linearGradient id="paint0_linear_58_458" x1="-27" y1="-54" x2="800.234" y2="868.164" gradientUnits="userSpaceOnUse">
<stop stop-color="#41635C"/>
<stop offset="1" stop-color="#528177"/>
</linearGradient>
</defs>
</svg>
