<svg width="43" height="43" viewBox="0 0 43 43" fill="none" xmlns="http://www.w3.org/2000/svg">
<path d="M26.0833 8.16699H16.7499C15.9764 8.16699 15.2345 8.47428 14.6875 9.02126C14.1405 9.56825 13.8333 10.3101 13.8333 11.0837V30.917C13.8333 31.6905 14.1405 32.4324 14.6875 32.9794C15.2345 33.5264 15.9764 33.8337 16.7499 33.8337H26.0833C26.8568 33.8337 27.5987 33.5264 28.1456 32.9794C28.6926 32.4324 28.9999 31.6905 28.9999 30.917V11.0837C28.9999 10.3101 28.6926 9.56825 28.1456 9.02126C27.5987 8.47428 26.8568 8.16699 26.0833 8.16699ZM21.4166 32.667C20.4483 32.667 19.6666 31.8853 19.6666 30.917C19.6666 29.9487 20.4483 29.167 21.4166 29.167C22.3849 29.167 23.1666 29.9487 23.1666 30.917C23.1666 31.8853 22.3849 32.667 21.4166 32.667ZM26.6666 28.0003H16.1666V11.667H26.6666V28.0003Z" fill="url(#paint0_linear_43_164)"/>
<rect x="1" y="1" width="41" height="41" rx="20.5" stroke="url(#paint1_linear_43_164)" stroke-width="2"/>
<defs>
<linearGradient id="paint0_linear_43_164" x1="13.8333" y1="8.16699" x2="30.6134" y2="10.1384" gradientUnits="userSpaceOnUse">
<stop stop-color="#41635C"/>
<stop offset="1" stop-color="#528177"/>
</linearGradient>
<linearGradient id="paint1_linear_43_164" x1="0" y1="0" x2="46.3972" y2="9.22482" gradientUnits="userSpaceOnUse">
<stop stop-color="#41635C"/>
<stop offset="1" stop-color="#528177"/>
</linearGradient>
</defs>
</svg>
